<mxfile host="app.diagrams.net" modified="2023-01-15T20:57:41.852Z" agent="5.0 (Windows NT 10.0; Win64; x64) AppleWebKit/537.36 (KHTML, like Gecko) Chrome/108.0.0.0 Safari/537.36" etag="LQ4Fjta14pjSWLdOZiOw" version="20.8.5" type="github">
  <diagram id="BwbueZTwrP3kuk7v8FJx" name="PÃ¡gina-1">
    <mxGraphModel dx="2256" dy="1177" grid="1" gridSize="10" guides="1" tooltips="1" connect="1" arrows="1" fold="1" page="1" pageScale="1" pageWidth="291" pageHeight="413" math="0" shadow="0">
      <root>
        <mxCell id="0" />
        <mxCell id="1" parent="0" />
        <mxCell id="epSY7fTq6KrpXsiW4jf5-40" style="edgeStyle=orthogonalEdgeStyle;rounded=0;orthogonalLoop=1;jettySize=auto;html=1;exitX=0.5;exitY=0;exitDx=0;exitDy=0;fontSize=13;entryX=0.5;entryY=0;entryDx=0;entryDy=0;" parent="1" source="epSY7fTq6KrpXsiW4jf5-2" target="bZY5Z342EeqqV9hAT-Xy-1" edge="1">
          <mxGeometry relative="1" as="geometry">
            <mxPoint x="380" y="-218" as="targetPoint" />
            <Array as="points">
              <mxPoint x="240" y="-40" />
              <mxPoint x="380" y="-40" />
              <mxPoint x="380" y="-400" />
              <mxPoint x="595" y="-400" />
            </Array>
          </mxGeometry>
        </mxCell>
        <mxCell id="bZY5Z342EeqqV9hAT-Xy-117" style="edgeStyle=orthogonalEdgeStyle;rounded=0;orthogonalLoop=1;jettySize=auto;html=1;exitX=0;exitY=0.5;exitDx=0;exitDy=0;entryX=1;entryY=0.5;entryDx=0;entryDy=0;" parent="1" source="epSY7fTq6KrpXsiW4jf5-2" target="epSY7fTq6KrpXsiW4jf5-14" edge="1">
          <mxGeometry relative="1" as="geometry" />
        </mxCell>
        <mxCell id="epSY7fTq6KrpXsiW4jf5-2" value="Clientes" style="swimlane;whiteSpace=wrap;html=1;rounded=1;fillColor=#cce5ff;strokeColor=#36393d;" parent="1" vertex="1">
          <mxGeometry x="160" y="80" width="160" height="110" as="geometry" />
        </mxCell>
        <mxCell id="epSY7fTq6KrpXsiW4jf5-4" value="List&amp;lt;Animais&amp;gt;pets" style="text;html=1;align=center;verticalAlign=middle;resizable=0;points=[];autosize=1;strokeColor=none;fillColor=none;fontStyle=1;rounded=1;" parent="epSY7fTq6KrpXsiW4jf5-2" vertex="1">
          <mxGeometry x="15" y="65" width="130" height="30" as="geometry" />
        </mxCell>
        <mxCell id="EgaVa4KAyTJcIK_QN-NM-4" value="int id" style="text;html=1;align=center;verticalAlign=middle;resizable=0;points=[];autosize=1;strokeColor=none;fillColor=none;" parent="epSY7fTq6KrpXsiW4jf5-2" vertex="1">
          <mxGeometry x="50" y="35" width="50" height="30" as="geometry" />
        </mxCell>
        <mxCell id="epSY7fTq6KrpXsiW4jf5-13" style="edgeStyle=orthogonalEdgeStyle;rounded=0;orthogonalLoop=1;jettySize=auto;html=1;exitX=0.5;exitY=0;exitDx=0;exitDy=0;fontSize=13;entryX=0.5;entryY=1;entryDx=0;entryDy=0;" parent="1" source="epSY7fTq6KrpXsiW4jf5-7" target="epSY7fTq6KrpXsiW4jf5-34" edge="1">
          <mxGeometry relative="1" as="geometry">
            <mxPoint x="205" y="280" as="targetPoint" />
            <Array as="points">
              <mxPoint x="500" y="30" />
              <mxPoint x="240" y="30" />
            </Array>
          </mxGeometry>
        </mxCell>
        <mxCell id="epSY7fTq6KrpXsiW4jf5-7" value="Endereco" style="swimlane;whiteSpace=wrap;html=1;rounded=1;fillColor=#cce5ff;strokeColor=#36393d;" parent="1" vertex="1">
          <mxGeometry x="410" y="80" width="180" height="280" as="geometry" />
        </mxCell>
        <mxCell id="epSY7fTq6KrpXsiW4jf5-9" value="&lt;span style=&quot;font-size: 13px; background-color: initial;&quot;&gt;String rua&lt;br&gt;&lt;/span&gt;&lt;br&gt;&lt;span style=&quot;font-size: 13px; background-color: initial;&quot;&gt;String bairro&lt;br&gt;&lt;/span&gt;&lt;br&gt;&lt;span style=&quot;background-color: initial; font-size: 13px;&quot;&gt;String complemento&lt;br&gt;&lt;/span&gt;&lt;br&gt;&lt;span style=&quot;font-size: 13px; background-color: initial;&quot;&gt;int numero&lt;br&gt;&lt;/span&gt;&lt;br&gt;&lt;span style=&quot;font-size: 13px; background-color: initial;&quot;&gt;String cep&lt;br&gt;&lt;/span&gt;&lt;br&gt;&lt;span style=&quot;font-size: 13px; background-color: initial;&quot;&gt;String cidade&lt;br&gt;&lt;/span&gt;&lt;br&gt;&lt;span style=&quot;font-size: 13px; background-color: initial;&quot;&gt;String estado&lt;br&gt;&lt;/span&gt;&lt;br&gt;&lt;span style=&quot;font-size: 13px; background-color: initial;&quot;&gt;String pontoReferencial&lt;/span&gt;" style="text;html=1;align=left;verticalAlign=middle;resizable=0;points=[];autosize=1;strokeColor=none;fillColor=none;rounded=1;" parent="epSY7fTq6KrpXsiW4jf5-7" vertex="1">
          <mxGeometry x="20" y="30" width="160" height="240" as="geometry" />
        </mxCell>
        <mxCell id="epSY7fTq6KrpXsiW4jf5-14" value="Animais" style="swimlane;whiteSpace=wrap;html=1;rounded=1;startSize=50;spacingTop=13;fillColor=#cce5ff;strokeColor=#36393d;" parent="1" vertex="1">
          <mxGeometry x="-120" y="-260" width="185" height="290" as="geometry" />
        </mxCell>
        <mxCell id="epSY7fTq6KrpXsiW4jf5-16" value="&lt;span style=&quot;font-size: 13px; background-color: initial;&quot;&gt;String nome&lt;br&gt;&lt;/span&gt;&lt;br&gt;&lt;span style=&quot;background-color: initial; font-size: 13px;&quot;&gt;Date nascimento&lt;br&gt;&lt;/span&gt;&lt;br&gt;&lt;span style=&quot;background-color: initial; font-size: 13px;&quot;&gt;String raca&lt;br&gt;&lt;/span&gt;&lt;br&gt;&lt;span style=&quot;font-size: 13px; background-color: initial;&quot;&gt;Porte porte&lt;br&gt;&lt;/span&gt;&lt;br&gt;&lt;span style=&quot;font-size: 13px; background-color: initial;&quot;&gt;Double peso&lt;br&gt;&lt;/span&gt;&lt;br&gt;&lt;span style=&quot;font-size: 13px; background-color: initial;&quot;&gt;String observacoes&lt;/span&gt;" style="text;html=1;align=left;verticalAlign=middle;resizable=0;points=[];autosize=1;strokeColor=none;fillColor=none;rounded=1;" parent="epSY7fTq6KrpXsiW4jf5-14" vertex="1">
          <mxGeometry x="20" y="50" width="130" height="180" as="geometry" />
        </mxCell>
        <mxCell id="epSY7fTq6KrpXsiW4jf5-33" value="&amp;lt;&amp;lt;abstract&amp;gt;&amp;gt;" style="text;html=1;align=center;verticalAlign=middle;resizable=0;points=[];autosize=1;strokeColor=none;fillColor=none;fontSize=13;" parent="epSY7fTq6KrpXsiW4jf5-14" vertex="1">
          <mxGeometry x="35" y="-2" width="100" height="30" as="geometry" />
        </mxCell>
        <mxCell id="eqjV9MvIipvx3p0Wk4fj-11" value="List&amp;lt;EsquemaVacinal&amp;gt;&lt;br&gt;vacinas" style="text;html=1;align=center;verticalAlign=middle;resizable=0;points=[];autosize=1;strokeColor=none;fillColor=none;fontStyle=1;rounded=1;" parent="epSY7fTq6KrpXsiW4jf5-14" vertex="1">
          <mxGeometry x="20" y="240" width="150" height="40" as="geometry" />
        </mxCell>
        <mxCell id="epSY7fTq6KrpXsiW4jf5-24" style="edgeStyle=orthogonalEdgeStyle;rounded=1;orthogonalLoop=1;jettySize=auto;html=1;exitX=0.5;exitY=0;exitDx=0;exitDy=0;entryX=0.5;entryY=1;entryDx=0;entryDy=0;fontSize=13;" parent="1" source="epSY7fTq6KrpXsiW4jf5-17" target="epSY7fTq6KrpXsiW4jf5-14" edge="1">
          <mxGeometry relative="1" as="geometry" />
        </mxCell>
        <mxCell id="epSY7fTq6KrpXsiW4jf5-17" value="Cachorro" style="swimlane;whiteSpace=wrap;html=1;rounded=1;fillColor=#cce5ff;strokeColor=#36393d;" parent="1" vertex="1">
          <mxGeometry x="-200" y="200" width="163" height="60" as="geometry" />
        </mxCell>
        <mxCell id="epSY7fTq6KrpXsiW4jf5-25" style="edgeStyle=orthogonalEdgeStyle;rounded=1;orthogonalLoop=1;jettySize=auto;html=1;exitX=0.5;exitY=0;exitDx=0;exitDy=0;fontSize=13;entryX=0.5;entryY=1;entryDx=0;entryDy=0;" parent="1" source="epSY7fTq6KrpXsiW4jf5-20" target="epSY7fTq6KrpXsiW4jf5-14" edge="1">
          <mxGeometry relative="1" as="geometry">
            <mxPoint x="-200" y="280" as="targetPoint" />
          </mxGeometry>
        </mxCell>
        <mxCell id="epSY7fTq6KrpXsiW4jf5-20" value="Gato" style="swimlane;whiteSpace=wrap;html=1;rounded=1;fillColor=#cce5ff;strokeColor=#36393d;" parent="1" vertex="1">
          <mxGeometry x="-30" y="200" width="163" height="60" as="geometry" />
        </mxCell>
        <mxCell id="epSY7fTq6KrpXsiW4jf5-27" value="Porte" style="swimlane;whiteSpace=wrap;html=1;rounded=0;startSize=50;spacingTop=14;fillColor=#f5f5f5;gradientColor=#b3b3b3;strokeColor=#666666;" parent="1" vertex="1">
          <mxGeometry x="-510" y="-250" width="130" height="160" as="geometry" />
        </mxCell>
        <mxCell id="epSY7fTq6KrpXsiW4jf5-29" value="&lt;span style=&quot;font-size: 13px; background-color: initial;&quot;&gt;PEQUENO&lt;br&gt;&lt;/span&gt;&lt;br&gt;&lt;span style=&quot;font-size: 13px; background-color: initial;&quot;&gt;MEDIO&lt;br&gt;&lt;/span&gt;&lt;br&gt;&lt;span style=&quot;font-size: 13px; background-color: initial;&quot;&gt;GRANDE&lt;/span&gt;" style="text;html=1;align=left;verticalAlign=middle;resizable=0;points=[];autosize=1;strokeColor=none;fillColor=none;rounded=1;labelBackgroundColor=none;spacing=2;rotation=0;" parent="epSY7fTq6KrpXsiW4jf5-27" vertex="1">
          <mxGeometry x="20" y="60" width="90" height="90" as="geometry" />
        </mxCell>
        <mxCell id="epSY7fTq6KrpXsiW4jf5-32" value="&amp;lt;&amp;lt;enum&amp;gt;&amp;gt;" style="text;html=1;align=center;verticalAlign=middle;resizable=0;points=[];autosize=1;strokeColor=none;fillColor=none;fontSize=13;" parent="epSY7fTq6KrpXsiW4jf5-27" vertex="1">
          <mxGeometry x="20" width="90" height="30" as="geometry" />
        </mxCell>
        <mxCell id="epSY7fTq6KrpXsiW4jf5-34" value="Pessoa" style="swimlane;whiteSpace=wrap;html=1;rounded=1;fillColor=#cce5ff;strokeColor=#36393d;" parent="1" vertex="1">
          <mxGeometry x="160" y="-260" width="160" height="175" as="geometry" />
        </mxCell>
        <mxCell id="epSY7fTq6KrpXsiW4jf5-36" value="&lt;span style=&quot;background-color: initial;&quot;&gt;String nome&lt;/span&gt;&lt;br&gt;&lt;br&gt;&lt;span style=&quot;background-color: initial;&quot;&gt;String cpf&lt;/span&gt;&lt;br&gt;&lt;br&gt;&lt;span style=&quot;background-color: initial;&quot;&gt;String email&lt;/span&gt;&lt;br&gt;&lt;br&gt;&lt;span style=&quot;background-color: initial;&quot;&gt;EndereÃ§o endereco&lt;/span&gt;&lt;br&gt;&lt;br&gt;&lt;span style=&quot;background-color: initial;&quot;&gt;String telefone&lt;/span&gt;" style="text;html=1;align=left;verticalAlign=middle;resizable=0;points=[];autosize=1;strokeColor=none;fillColor=none;rounded=1;" parent="epSY7fTq6KrpXsiW4jf5-34" vertex="1">
          <mxGeometry x="16" y="26" width="130" height="140" as="geometry" />
        </mxCell>
        <mxCell id="epSY7fTq6KrpXsiW4jf5-41" style="edgeStyle=orthogonalEdgeStyle;rounded=0;orthogonalLoop=1;jettySize=auto;html=1;exitX=0.5;exitY=0;exitDx=0;exitDy=0;entryX=0.5;entryY=1;entryDx=0;entryDy=0;fontSize=13;" parent="1" source="epSY7fTq6KrpXsiW4jf5-38" target="epSY7fTq6KrpXsiW4jf5-34" edge="1">
          <mxGeometry relative="1" as="geometry">
            <Array as="points">
              <mxPoint x="760" y="30" />
              <mxPoint x="240" y="30" />
            </Array>
          </mxGeometry>
        </mxCell>
        <mxCell id="epSY7fTq6KrpXsiW4jf5-38" value="Funcionario" style="swimlane;whiteSpace=wrap;html=1;rounded=1;fillColor=#cce5ff;strokeColor=#36393d;" parent="1" vertex="1">
          <mxGeometry x="680" y="80" width="160" height="200" as="geometry" />
        </mxCell>
        <mxCell id="epSY7fTq6KrpXsiW4jf5-42" value="&lt;span style=&quot;background-color: initial;&quot;&gt;int id&lt;br&gt;&lt;/span&gt;&lt;br&gt;&lt;span style=&quot;background-color: initial;&quot;&gt;String cargo&lt;br&gt;&lt;br&gt;&lt;/span&gt;&lt;span style=&quot;background-color: initial;&quot;&gt;BigDecimal salÃ¡rio&lt;br&gt;&lt;br&gt;&lt;/span&gt;&lt;span style=&quot;background-color: initial;&quot;&gt;Date admissao&lt;br&gt;&lt;/span&gt;&lt;br&gt;&lt;span style=&quot;background-color: initial;&quot;&gt;Date desligamento&lt;/span&gt;" style="text;strokeColor=none;fillColor=none;html=1;whiteSpace=wrap;verticalAlign=middle;overflow=hidden;rounded=1;labelBackgroundColor=none;fontSize=13;" parent="epSY7fTq6KrpXsiW4jf5-38" vertex="1">
          <mxGeometry x="20" y="24.75" width="160" height="175.5" as="geometry" />
        </mxCell>
        <mxCell id="EgaVa4KAyTJcIK_QN-NM-1" value="Cargo" style="swimlane;whiteSpace=wrap;html=1;rounded=0;startSize=50;spacingTop=14;fillColor=#f5f5f5;gradientColor=#b3b3b3;strokeColor=#666666;" parent="1" vertex="1">
          <mxGeometry x="890" y="80" width="160" height="240" as="geometry" />
        </mxCell>
        <mxCell id="EgaVa4KAyTJcIK_QN-NM-2" value="&lt;span style=&quot;font-size: 13px; background-color: initial;&quot;&gt;VETERINARIO&lt;br&gt;&lt;/span&gt;&lt;br&gt;&lt;span style=&quot;font-size: 13px; background-color: initial;&quot;&gt;TOSADOR&lt;br&gt;&lt;/span&gt;&lt;br&gt;&lt;span style=&quot;font-size: 13px; background-color: initial;&quot;&gt;BANHISTA&lt;br&gt;&lt;/span&gt;&lt;br&gt;&lt;span style=&quot;font-size: 13px; background-color: initial;&quot;&gt;RECEPCIONISTA&lt;br&gt;&lt;/span&gt;&lt;br&gt;&lt;span style=&quot;font-size: 13px; background-color: initial;&quot;&gt;AUXILIAR_GERAL&lt;br&gt;&lt;/span&gt;&lt;br&gt;&lt;span style=&quot;font-size: 13px; background-color: initial;&quot;&gt;ESTAGIARIO&lt;/span&gt;" style="text;html=1;align=left;verticalAlign=middle;resizable=0;points=[];autosize=1;strokeColor=none;fillColor=none;rounded=1;labelBackgroundColor=none;spacing=2;rotation=0;" parent="EgaVa4KAyTJcIK_QN-NM-1" vertex="1">
          <mxGeometry x="20" y="60" width="130" height="180" as="geometry" />
        </mxCell>
        <mxCell id="EgaVa4KAyTJcIK_QN-NM-3" value="&amp;lt;&amp;lt;enum&amp;gt;&amp;gt;" style="text;html=1;align=center;verticalAlign=middle;resizable=0;points=[];autosize=1;strokeColor=none;fillColor=none;fontSize=13;" parent="EgaVa4KAyTJcIK_QN-NM-1" vertex="1">
          <mxGeometry x="35" width="90" height="30" as="geometry" />
        </mxCell>
        <mxCell id="bZY5Z342EeqqV9hAT-Xy-116" style="edgeStyle=orthogonalEdgeStyle;rounded=0;orthogonalLoop=1;jettySize=auto;html=1;entryX=0;entryY=0.5;entryDx=0;entryDy=0;" parent="1" source="eqjV9MvIipvx3p0Wk4fj-13" target="epSY7fTq6KrpXsiW4jf5-14" edge="1">
          <mxGeometry relative="1" as="geometry">
            <mxPoint x="-140" y="-120" as="targetPoint" />
            <Array as="points">
              <mxPoint x="-180" y="20" />
              <mxPoint x="-180" y="-120" />
              <mxPoint x="-120" y="-120" />
            </Array>
          </mxGeometry>
        </mxCell>
        <mxCell id="eqjV9MvIipvx3p0Wk4fj-13" value="Esquema Vacinal&lt;br&gt;" style="swimlane;whiteSpace=wrap;html=1;rounded=1;startSize=50;spacingTop=14;fillColor=#cce5ff;strokeColor=#36393d;" parent="1" vertex="1">
          <mxGeometry x="-338" y="-30" width="140" height="160" as="geometry" />
        </mxCell>
        <mxCell id="eqjV9MvIipvx3p0Wk4fj-14" value="&lt;span style=&quot;font-size: 13px; background-color: initial;&quot;&gt;Date data&lt;br&gt;&lt;/span&gt;&lt;br&gt;&lt;span style=&quot;font-size: 13px; background-color: initial;&quot;&gt;String nome&lt;br&gt;&lt;/span&gt;&lt;br&gt;&lt;span style=&quot;font-size: 13px; background-color: initial;&quot;&gt;String ObservaÃ§Ã£o&lt;/span&gt;" style="text;html=1;align=left;verticalAlign=middle;resizable=0;points=[];autosize=1;strokeColor=none;fillColor=none;rounded=1;labelBackgroundColor=none;spacing=2;rotation=0;" parent="eqjV9MvIipvx3p0Wk4fj-13" vertex="1">
          <mxGeometry x="10" y="60" width="130" height="90" as="geometry" />
        </mxCell>
        <mxCell id="eqjV9MvIipvx3p0Wk4fj-19" value="Estado Animal" style="swimlane;whiteSpace=wrap;html=1;rounded=0;startSize=50;spacingTop=14;fillColor=#f5f5f5;gradientColor=#b3b3b3;strokeColor=#666666;" parent="1" vertex="1">
          <mxGeometry x="-340" y="-250" width="144" height="180" as="geometry" />
        </mxCell>
        <mxCell id="eqjV9MvIipvx3p0Wk4fj-20" value="&lt;span style=&quot;background-color: initial; font-size: 13px;&quot;&gt;SUJO&lt;br&gt;&lt;/span&gt;&lt;br&gt;&lt;span style=&quot;background-color: initial; font-size: 13px;&quot;&gt;NORMAL&lt;br&gt;&lt;/span&gt;&lt;br&gt;&lt;span style=&quot;background-color: initial; font-size: 13px;&quot;&gt;LIMPO&lt;br&gt;&lt;/span&gt;&lt;br&gt;&lt;span style=&quot;background-color: initial; font-size: 13px;&quot;&gt;LIMPO_E_TOSADO&lt;/span&gt;" style="text;html=1;align=left;verticalAlign=middle;resizable=0;points=[];autosize=1;strokeColor=none;fillColor=none;rounded=1;labelBackgroundColor=none;spacing=2;rotation=0;" parent="eqjV9MvIipvx3p0Wk4fj-19" vertex="1">
          <mxGeometry x="10" y="55" width="140" height="120" as="geometry" />
        </mxCell>
        <mxCell id="eqjV9MvIipvx3p0Wk4fj-21" value="&amp;lt;&amp;lt;enum&amp;gt;&amp;gt;" style="text;html=1;align=center;verticalAlign=middle;resizable=0;points=[];autosize=1;strokeColor=none;fillColor=none;fontSize=13;" parent="eqjV9MvIipvx3p0Wk4fj-19" vertex="1">
          <mxGeometry x="35" width="90" height="30" as="geometry" />
        </mxCell>
        <mxCell id="eqjV9MvIipvx3p0Wk4fj-22" value="PETSHOP" style="swimlane;whiteSpace=wrap;html=1;rounded=1;startSize=50;spacingTop=13;" parent="1" vertex="1">
          <mxGeometry x="440" y="-360" width="310" height="350.5" as="geometry" />
        </mxCell>
        <mxCell id="eqjV9MvIipvx3p0Wk4fj-29" value="Vacinas" style="swimlane;whiteSpace=wrap;html=1;rounded=0;startSize=50;spacingTop=14;fillColor=#f5f5f5;gradientColor=#b3b3b3;strokeColor=#666666;" parent="1" vertex="1">
          <mxGeometry x="-510" y="-30" width="130" height="200" as="geometry" />
        </mxCell>
        <mxCell id="eqjV9MvIipvx3p0Wk4fj-30" value="&lt;span style=&quot;background-color: initial; font-size: 13px;&quot;&gt;VACINA_1&lt;br&gt;&lt;/span&gt;&lt;br&gt;&lt;span style=&quot;background-color: initial; font-size: 13px;&quot;&gt;VACINA_2&lt;br&gt;&lt;/span&gt;&lt;br&gt;&lt;span style=&quot;background-color: initial; font-size: 13px;&quot;&gt;VACINA_3&lt;br&gt;&lt;/span&gt;&lt;br&gt;&lt;span style=&quot;background-color: initial; font-size: 13px;&quot;&gt;VACINA_4&lt;br&gt;&lt;/span&gt;&lt;br&gt;&lt;span style=&quot;background-color: initial; font-size: 13px;&quot;&gt;VACINA_5&lt;/span&gt;" style="text;html=1;align=left;verticalAlign=middle;resizable=0;points=[];autosize=1;strokeColor=none;fillColor=none;rounded=1;labelBackgroundColor=none;spacing=2;rotation=0;" parent="eqjV9MvIipvx3p0Wk4fj-29" vertex="1">
          <mxGeometry x="29" y="50" width="90" height="150" as="geometry" />
        </mxCell>
        <mxCell id="bZY5Z342EeqqV9hAT-Xy-1" value="PETSHOP" style="swimlane;whiteSpace=wrap;html=1;rounded=1;startSize=50;spacingTop=13;fillColor=#1ba1e2;fontColor=#ffffff;strokeColor=#006EAF;" parent="1" vertex="1">
          <mxGeometry x="440" y="-360" width="310" height="350.5" as="geometry" />
        </mxCell>
        <mxCell id="bZY5Z342EeqqV9hAT-Xy-2" value="String cnpj&lt;br&gt;Endereco endereco" style="text;html=1;align=left;verticalAlign=middle;resizable=0;points=[];autosize=1;strokeColor=none;fillColor=none;" parent="bZY5Z342EeqqV9hAT-Xy-1" vertex="1">
          <mxGeometry x="80" y="57" width="130" height="40" as="geometry" />
        </mxCell>
        <mxCell id="bZY5Z342EeqqV9hAT-Xy-3" value="&lt;div style=&quot;text-align: left;&quot;&gt;&lt;span style=&quot;background-color: initial;&quot;&gt;ResponseVO higienizar(Cliente cliente, List&amp;lt;Animal&amp;gt;animais, Higiene higiene, String observacao)&lt;/span&gt;&lt;/div&gt;&lt;div style=&quot;text-align: left;&quot;&gt;&lt;br&gt;&lt;/div&gt;&lt;div style=&quot;text-align: left;&quot;&gt;&lt;span style=&quot;background-color: initial;&quot;&gt;ResponseVO atendimentoClinico(Cliente cliente, List&amp;lt;Animal&amp;gt;animais, String observacao)&lt;/span&gt;&lt;/div&gt;&lt;div style=&quot;text-align: left;&quot;&gt;&lt;br&gt;&lt;/div&gt;&lt;div style=&quot;text-align: left;&quot;&gt;ResponseVO vacinacao(Cliente cliente, List&amp;lt;Animal&amp;gt;animais, List&amp;lt;Vacinas&amp;gt;vacina, String observacao&lt;/div&gt;&lt;div style=&quot;text-align: left;&quot;&gt;&lt;br&gt;&lt;/div&gt;&lt;div style=&quot;text-align: left;&quot;&gt;void verRemedios()&lt;/div&gt;&lt;div style=&quot;text-align: left;&quot;&gt;&lt;br&gt;&lt;/div&gt;&lt;div style=&quot;text-align: left;&quot;&gt;void verAlimentos()&lt;/div&gt;" style="text;html=1;strokeColor=none;fillColor=none;align=center;verticalAlign=middle;whiteSpace=wrap;rounded=0;" parent="bZY5Z342EeqqV9hAT-Xy-1" vertex="1">
          <mxGeometry x="20" y="120" width="260" height="210" as="geometry" />
        </mxCell>
        <mxCell id="bZY5Z342EeqqV9hAT-Xy-5" value="" style="line;strokeWidth=1;rotatable=0;dashed=0;labelPosition=right;align=left;verticalAlign=middle;spacingTop=0;spacingLeft=6;points=[];portConstraint=eastwest;" parent="bZY5Z342EeqqV9hAT-Xy-1" vertex="1">
          <mxGeometry y="97" width="310" height="10" as="geometry" />
        </mxCell>
        <mxCell id="bZY5Z342EeqqV9hAT-Xy-105" value="ResponseVO" style="swimlane;whiteSpace=wrap;html=1;rounded=1;fillColor=#cce5ff;strokeColor=#36393d;" parent="1" vertex="1">
          <mxGeometry x="800" y="-260" width="160" height="170" as="geometry" />
        </mxCell>
        <mxCell id="bZY5Z342EeqqV9hAT-Xy-106" value="&lt;div&gt;&lt;span style=&quot;font-size: 13px;&quot;&gt;&lt;br&gt;&lt;/span&gt;&lt;/div&gt;" style="text;html=1;align=left;verticalAlign=middle;resizable=0;points=[];autosize=1;strokeColor=none;fillColor=none;rounded=1;" parent="bZY5Z342EeqqV9hAT-Xy-105" vertex="1">
          <mxGeometry y="95" width="20" height="30" as="geometry" />
        </mxCell>
        <mxCell id="bZY5Z342EeqqV9hAT-Xy-107" value="int id&lt;br&gt;&lt;br&gt;Servicos servico&lt;br&gt;&lt;br&gt;BigDecimal valor&lt;br&gt;&lt;br&gt;Cliente cliente" style="text;html=1;align=left;verticalAlign=middle;resizable=0;points=[];autosize=1;strokeColor=none;fillColor=none;" parent="bZY5Z342EeqqV9hAT-Xy-105" vertex="1">
          <mxGeometry x="25" y="41" width="110" height="110" as="geometry" />
        </mxCell>
        <mxCell id="bZY5Z342EeqqV9hAT-Xy-108" value="Servicos" style="swimlane;whiteSpace=wrap;html=1;rounded=0;fillColor=#f5f5f5;strokeColor=#666666;startSize=60;gradientColor=#b3b3b3;" parent="1" vertex="1">
          <mxGeometry x="980" y="-260" width="195" height="170" as="geometry" />
        </mxCell>
        <mxCell id="bZY5Z342EeqqV9hAT-Xy-109" value="&lt;div&gt;&lt;span style=&quot;font-size: 13px;&quot;&gt;&lt;br&gt;&lt;/span&gt;&lt;/div&gt;" style="text;html=1;align=left;verticalAlign=middle;resizable=0;points=[];autosize=1;strokeColor=none;fillColor=none;rounded=1;" parent="bZY5Z342EeqqV9hAT-Xy-108" vertex="1">
          <mxGeometry y="95" width="20" height="30" as="geometry" />
        </mxCell>
        <mxCell id="bZY5Z342EeqqV9hAT-Xy-110" value="HIGIENIZAR&lt;br&gt;&lt;br&gt;ATENDIMENTO_CLINICO&lt;br&gt;&lt;br&gt;VACINACAO" style="text;html=1;align=left;verticalAlign=middle;resizable=0;points=[];autosize=1;strokeColor=none;fillColor=none;" parent="bZY5Z342EeqqV9hAT-Xy-108" vertex="1">
          <mxGeometry x="25" y="70" width="170" height="90" as="geometry" />
        </mxCell>
        <mxCell id="bZY5Z342EeqqV9hAT-Xy-119" value="&amp;lt;&amp;lt;enum&amp;gt;&amp;gt;" style="text;html=1;align=center;verticalAlign=middle;resizable=0;points=[];autosize=1;strokeColor=none;fillColor=none;fontSize=13;" parent="bZY5Z342EeqqV9hAT-Xy-108" vertex="1">
          <mxGeometry x="50" width="90" height="30" as="geometry" />
        </mxCell>
      </root>
    </mxGraphModel>
  </diagram>
</mxfile>
